<svg width="18" height="18" viewBox="0 0 18 18" fill="none" xmlns="http://www.w3.org/2000/svg">
<g clip-path="url(#clip0)">
<path d="M17.51 13.2102L14.9981 10.6982C14.101 9.80111 12.5759 10.16 12.217 11.3262C11.9479 12.1337 11.0507 12.5822 10.2433 12.4028C8.44907 11.9542 6.02683 9.62168 5.57827 7.73772C5.30913 6.93027 5.84741 6.03314 6.65482 5.76404C7.82108 5.40519 8.17993 3.88007 7.28281 2.98295L4.77085 0.470991C4.05315 -0.156997 2.9766 -0.156997 2.34861 0.470991L0.644073 2.17553C-1.06047 3.96978 0.823499 8.72455 5.03999 12.941C9.25649 17.1575 14.0113 19.1313 15.8055 17.337L17.51 15.6324C18.1381 14.9147 18.1381 13.8382 17.51 13.2102Z" fill="#7FA409"/>
</g>
<defs>
<clipPath id="clip0">
<rect width="18" height="18" fill="white"/>
</clipPath>
</defs>
</svg>
