<svg width="40" height="40" viewBox="0 0 40 40" fill="none" xmlns="http://www.w3.org/2000/svg">
<path d="M12.5 8.75H27.5L30.8936 3.78602C31.3575 3.01391 31.3691 2.05203 30.9253 1.26828C30.4816 0.484609 29.6509 0 28.75 0H25C24.3372 0 23.7012 0.263672 23.2324 0.732422L21.25 2.71422L19.2676 0.732422C18.7988 0.263672 18.1628 0 17.5 0H11.25C10.3492 0 9.51846 0.484609 9.07471 1.26828C8.63096 2.05195 8.6426 3.01391 9.10643 3.78602L12.5 8.75Z" fill="#7FA409"/>
<path d="M27.5 11.25H12.5C6.90984 15.4991 2.5 23.4706 2.5 29.7363C2.5 40 11.7975 40 20 40C28.2025 40 37.5 40 37.5 29.7363C37.5 23.4706 33.0902 15.4991 27.5 11.25Z" fill="#7FA409"/>
</svg>
