<svg width="40" height="40" viewBox="0 0 40 40" fill="none" xmlns="http://www.w3.org/2000/svg">
<path d="M20.5907 27.0339V26.8781C19.7942 26.8694 19.0324 26.8262 18.2965 26.7656C17.8983 27.7958 17.3356 28.7567 16.6344 29.6138C17.9589 29.8302 19.3008 29.9514 20.6426 29.9687L20.5907 27.0339Z" fill="#7FA409"/>
<path d="M17.0846 21.3029C16.4439 18.2383 14.1844 15.745 11.1804 14.8014C10.3493 14.5503 9.49224 14.4205 8.62653 14.4205C6.47956 14.4291 4.40184 15.2256 2.81758 16.6627C-0.705875 19.8658 -0.956932 25.3285 2.24621 28.8519C5.44936 32.3754 10.912 32.6264 14.4355 29.4233C16.2362 27.7871 17.2664 25.4756 17.2577 23.043C17.2577 22.463 17.1971 21.8743 17.0846 21.3029ZM8.62653 21.8829C10.0896 21.8829 11.3795 22.8525 11.7777 24.2636C12.2625 26.0037 11.2583 27.8044 9.50956 28.2979V29.0597C9.50956 29.5358 9.11999 29.9254 8.64384 29.9254C8.1677 29.9254 7.77813 29.5358 7.77813 29.0597V28.3065C6.3497 27.917 5.36278 26.627 5.35413 25.1467C5.35413 24.6705 5.7437 24.281 6.21984 24.281C6.69599 24.281 7.08556 24.6705 7.08556 25.1467C7.08556 25.9951 7.77813 26.679 8.62653 26.679C9.47493 26.679 10.1588 25.9864 10.1588 25.138C10.1588 24.2896 9.46627 23.6057 8.61787 23.6057C7.1375 23.6057 5.84759 22.6101 5.46667 21.1817C5.00784 19.4503 6.0467 17.6496 7.78679 17.1821V16.8098C7.78679 16.3337 8.17636 15.9441 8.6525 15.9441C9.12864 15.9441 9.51822 16.3337 9.51822 16.8098V17.1994C10.9293 17.5976 11.8989 18.8876 11.8989 20.3506C11.8989 20.8268 11.5094 21.2163 11.0332 21.2163C10.5571 21.2163 10.1675 20.8268 10.1675 20.3506C10.1675 19.5022 9.47493 18.8096 8.62653 18.8096C7.77813 18.8096 7.09421 19.4936 7.08556 20.3506C7.08556 21.199 7.77813 21.8829 8.62653 21.8829Z" fill="#7FA409"/>
<path d="M20.5647 25.138L20.5127 22.0734C19.976 22.0648 19.4479 22.0474 18.9458 22.0128C18.9718 22.3591 18.9891 22.6967 18.9891 23.0344C18.9891 23.7096 18.9198 24.3935 18.79 25.0601C19.3613 25.112 19.9587 25.138 20.5647 25.138Z" fill="#7FA409"/>
<path d="M30.0443 10.8105C29.4469 11.1221 28.815 11.3732 28.1657 11.5637C26.2178 12.1523 23.664 12.4727 20.9976 12.4727C18.4437 12.4727 16.0111 12.1783 14.1325 11.6329C13.4832 11.4598 12.8599 11.2174 12.2625 10.9144L12.3231 13.3557C13.3014 13.7193 14.2104 14.2387 15.0328 14.888C15.0588 14.8967 15.0761 14.8967 15.1021 14.9053C16.7642 15.3295 18.8593 15.5546 20.9976 15.5546C23.4735 15.5546 25.9062 15.2429 27.6636 14.7149C29.5422 14.1435 29.9577 13.5461 29.9577 13.4336C29.9577 13.3124 29.9491 13.1999 30.0443 13.0787V10.8105Z" fill="#7FA409"/>
<path d="M27.6549 7.37355C25.8975 6.83681 23.4649 6.53381 20.9889 6.53381C18.4957 6.53381 16.1582 6.83681 14.4095 7.37355C12.5828 7.92761 12.1846 8.47301 12.1759 8.64615C12.1759 8.64615 12.1846 8.64615 12.1846 8.66347C12.2279 8.85392 12.7473 9.44261 14.6086 9.97935C16.3314 10.4815 18.5995 10.7585 20.9889 10.7585C23.4649 10.7585 25.8889 10.4555 27.6463 9.92741C29.5249 9.3647 29.9491 8.76735 29.9491 8.64615C29.9491 8.53361 29.5335 7.94493 27.6549 7.37355Z" fill="#7FA409"/>
<path d="M39.9827 31.3279V28.7307C39.4027 29.0251 38.7967 29.2761 38.1647 29.4666C36.2255 30.0553 33.689 30.3756 31.0139 30.3756C28.6418 30.3756 26.3304 30.1072 24.5124 29.6311C23.7679 29.4406 23.0493 29.1809 22.3568 28.8433L22.4 31.3538C22.4 31.3625 22.4 31.3625 22.4 31.3711C22.4 31.501 22.781 32.081 24.6076 32.6437C26.339 33.1718 28.6765 33.4662 31.1784 33.4662C33.6716 33.4662 36.0177 33.1632 37.7665 32.6178C39.5931 32.0464 39.9914 31.4491 39.9914 31.3279H39.9827Z" fill="#7FA409"/>
<path d="M30.0269 15.6412C29.4296 15.9442 28.8063 16.1952 28.157 16.3857C26.2091 16.9744 23.6553 17.2947 20.9802 17.2947C19.6643 17.2947 18.3571 17.2081 17.0585 17.0436C17.7598 18.0132 18.2792 19.104 18.6082 20.2641C19.3527 20.316 20.1578 20.3507 20.9889 20.3507C21.0148 20.3507 21.0495 20.3507 21.0754 20.3507C22.4952 18.7924 26.313 18.0132 30.0269 17.9094V15.6412Z" fill="#7FA409"/>
<path d="M38.1041 24.6792C36.1735 25.2506 33.663 25.5622 31.0312 25.5622C28.4773 25.5622 26.0447 25.2679 24.1661 24.7225C23.5168 24.5407 22.8848 24.2983 22.2788 23.9953L22.3134 25.9864L22.3221 26.7136C22.9974 27.5534 26.2265 28.6355 31.0225 28.6355C33.5244 28.6355 35.8878 28.3412 37.6626 27.8044C39.5325 27.2331 39.9394 26.6444 39.9394 26.5232C39.9394 26.428 39.9913 26.3241 39.9913 26.2375H40V23.9434C39.394 24.2464 38.762 24.5061 38.1041 24.6792Z" fill="#7FA409"/>
<path d="M37.6972 20.4804C35.9312 19.9437 33.5072 19.658 31.0312 19.658H30.884C28.5812 19.658 26.391 19.9177 24.7115 20.3939C22.9195 20.896 22.3048 21.4674 22.2269 21.7011C22.2182 21.7184 22.2182 21.7271 22.2182 21.7357C22.2182 21.7357 22.2182 21.7357 22.2355 21.7704C22.2875 21.9522 22.7983 22.5409 24.6595 23.0863C26.3823 23.5797 28.6505 23.8567 31.0399 23.8567C33.5072 23.8567 35.8446 23.5711 37.6193 23.043C39.5412 22.4716 39.974 21.8743 39.9827 21.7444V21.7357C39.974 21.6059 39.5412 21.0345 37.6972 20.4804Z" fill="#7FA409"/>
</svg>
