<svg width="60" height="60" viewBox="0 0 60 60" fill="none" xmlns="http://www.w3.org/2000/svg">
<g clip-path="url(#clip0)">
<path d="M43.75 27.5C34.79 27.5 27.5 34.79 27.5 43.75C27.5 52.71 34.79 60 43.75 60C52.71 60 60 52.71 60 43.75C60 34.79 52.71 27.5 43.75 27.5ZM50.7925 40.6025L42.6675 49.9775C42.325 50.37 41.8375 50.605 41.3175 50.6225C41.295 50.6225 41.2725 50.6225 41.25 50.6225C40.7525 50.6225 40.275 50.425 39.925 50.0725L35.55 45.6975C34.8175 44.965 34.8175 43.7775 35.55 43.045C36.2825 42.3125 37.47 42.3125 38.2025 43.045L41.155 45.995L47.96 38.1425C48.6375 37.3625 49.82 37.275 50.605 37.9525C51.385 38.6375 51.47 39.82 50.7925 40.6025Z" fill="#7FA409"/>
<path d="M33.6 3.9752L10.9 15.4252L1.87499 11.0502L24.175 0.200195C24.675 -0.0498047 25.275 -0.0498047 25.8 0.200195L33.6 3.9752Z" fill="#7FA409"/>
<path d="M48.125 11.0503L25.025 22.3253L16.375 18.1253L15.125 17.5003L37.85 6.05029L39.1 6.67529L48.125 11.0503Z" fill="#7FA409"/>
<path d="M23.15 38.4998C22.725 40.1748 22.5 41.9498 22.5 43.7498C22.5 45.5498 22.725 47.2748 23.15 48.9498V49.2998L1.02499 37.9248C0.399992 37.5998 -7.62939e-06 36.9498 -7.62939e-06 36.2498V14.2998L9.37499 18.8498V26.8498C9.37499 27.8748 10.225 28.7248 11.25 28.7248C12.275 28.7248 13.125 27.8748 13.125 26.8498V20.6998L14.375 21.2998L23.175 25.5748L23.15 38.4998Z" fill="#7FA409"/>
<path d="M50.025 23.4497C48.05 22.8247 45.925 22.4997 43.75 22.4997C36.9 22.4997 30.8 25.7497 26.925 30.7997V25.5497L50 14.3247C50.025 16.4247 50.025 20.5247 50.025 23.4497Z" fill="#7FA409"/>
</g>
<defs>
<clipPath id="clip0">
<rect width="60" height="60" fill="white"/>
</clipPath>
</defs>
</svg>
