<svg width="50" height="50" viewBox="0 0 50 50" fill="none" xmlns="http://www.w3.org/2000/svg">
<g clip-path="url(#clip0)">
<path d="M38.8958 50L44.5728 38.2609C48.8398 29.4376 46.3402 19.0941 39.1195 13.1067C34.6246 9.37959 30.3363 5.41025 26.4008 1.09658L25.4004 0L23.0741 3.07354C20.2037 6.86592 18.0134 10.8985 16.7194 14.9847L38.8958 50Z" fill="#00AA95"/>
<path d="M4.22215 14.6424L4.97829 10.8627C8.7155 19.672 18.3011 24.3528 23.7956 30.4314C33.4042 41.0614 38.8959 50 38.8959 50H33.2068C7.92087 50 0.562866 32.9337 4.22215 14.6424Z" fill="#00CC76"/>
<path d="M4.97842 10.8627L6.35654 11.4144C9.75215 12.7736 13.2137 13.951 16.7195 14.9847V14.9848C18.8105 15.6014 20.9173 16.1668 23.0354 16.6893C32.1426 18.9358 38.896 27.1594 38.896 36.9603V50C38.8959 50 15.2513 35.0775 4.97842 10.8627Z" fill="#A5E887"/>
</g>
<defs>
<clipPath id="clip0">
<rect width="50" height="50" fill="white" transform="matrix(-1 0 0 1 50 0)"/>
</clipPath>
</defs>
</svg>
