<svg width="18" height="18" viewBox="0 0 18 18" fill="none" xmlns="http://www.w3.org/2000/svg">
<path d="M9 0C5.50891 0 2.67188 2.83711 2.67188 6.32813C2.67188 7.50938 2.9989 8.65902 3.62113 9.65043L8.57102 17.7509C8.65547 17.888 8.78203 17.9724 8.92972 17.9935C9.13004 18.0251 9.35163 17.9408 9.46761 17.7404L14.4317 9.56602C15.0222 8.59574 15.3281 7.46722 15.3281 6.32813C15.3281 2.83711 12.4911 0 9 0ZM9 9.49219C7.2282 9.49219 5.83594 8.05781 5.83594 6.32813C5.83594 4.58786 7.25973 3.16406 9 3.16406C10.7403 3.16406 12.1641 4.58786 12.1641 6.32813C12.1641 8.04727 10.7929 9.49219 9 9.49219Z" fill="#7FA409"/>
</svg>
