<svg width="118" height="118" viewBox="0 0 118 118" fill="none" xmlns="http://www.w3.org/2000/svg">
<path d="M32.5483 53.0508C39.6283 66.965 51.035 78.3225 64.9492 85.4517L75.7658 74.635C77.0933 73.3075 79.06 72.865 80.7808 73.455C86.2875 75.2742 92.2367 76.2575 98.3333 76.2575C101.037 76.2575 103.25 78.47 103.25 81.1742V98.3333C103.25 101.037 101.037 103.25 98.3333 103.25C52.1658 103.25 14.75 65.8342 14.75 19.6667C14.75 16.9625 16.9625 14.75 19.6667 14.75H36.875C39.5792 14.75 41.7917 16.9625 41.7917 19.6667C41.7917 25.8125 42.775 31.7125 44.5942 37.2192C45.135 38.94 44.7417 40.8575 43.365 42.2342L32.5483 53.0508Z" fill="white"/>
</svg>
