<svg width="60" height="60" viewBox="0 0 60 60" fill="none" xmlns="http://www.w3.org/2000/svg">
<path d="M40.0122 4.5478H35.6221C35.0743 4.53084 34.6036 4.15419 34.4668 3.62364C34.0508 1.46235 32.1224 -0.0738938 29.9228 0.00379527C27.7099 -0.0349756 25.791 1.52618 25.3788 3.70073C25.2364 4.2167 24.7583 4.56726 24.2235 4.54794H19.9875V12.2498H40.0122V4.5478Z" fill="#7FA409"/>
<path d="M52.3352 56.4569V12.3255C52.3399 10.5815 50.9299 9.16396 49.1859 9.15924C49.106 9.15909 49.0261 9.1619 48.9464 9.16764H42.3228V13.0956C42.3228 13.7118 41.9377 14.559 41.3215 14.559H18.6012C17.985 14.559 17.6771 13.7118 17.6771 13.0956V9.16779H11.0534C9.3142 9.04013 7.80066 10.3467 7.67315 12.0861C7.66725 12.1658 7.66445 12.2457 7.66474 12.3256V56.457C7.6217 58.3706 9.13818 59.9568 11.0518 59.9997C11.0524 59.9997 11.053 59.9997 11.0536 59.9997H48.9465C50.8602 59.9577 52.3774 58.3723 52.3354 56.4586C52.3352 56.458 52.3352 56.4575 52.3352 56.4569ZM23.7614 46.2905L17.754 51.9129C17.5619 52.1427 17.2829 52.2821 16.9839 52.2979C16.6621 52.2852 16.358 52.147 16.1367 51.9129L12.979 48.6781C12.5593 48.2081 12.5937 47.4886 13.056 47.0608C13.5051 46.6204 14.2241 46.6204 14.6733 47.0608L16.9837 49.5253L22.2211 44.5961C22.7462 44.2337 23.4657 44.3655 23.8281 44.8906C24.1238 45.319 24.0964 45.8922 23.7614 46.2905ZM23.7614 33.9676L17.754 39.5899C17.5619 39.8198 17.2829 39.9592 16.9839 39.975C16.6621 39.9623 16.358 39.824 16.1367 39.5899L12.979 36.3551C12.5593 35.8852 12.5937 35.1656 13.056 34.7378C13.5051 34.2975 14.2241 34.2975 14.6733 34.7378L16.9837 37.2023L22.2211 32.2731C22.7462 31.9108 23.4657 32.0426 23.8281 32.5677C24.1238 32.9961 24.0964 33.5692 23.7614 33.9676ZM23.7614 21.6446L17.754 27.267C17.5619 27.4968 17.2829 27.6363 16.9839 27.652C16.6621 27.6394 16.358 27.5011 16.1367 27.267L12.979 24.0322C12.5593 23.5622 12.5937 22.8427 13.056 22.4149C13.5051 21.9746 14.2241 21.9746 14.6733 22.4149L16.9837 24.8794L22.2211 19.9502C22.7462 19.5879 23.4657 19.7197 23.8281 20.2448C24.1238 20.6731 24.0964 21.2463 23.7614 21.6446ZM46.1738 50.7575H28.4595C27.8214 50.7575 27.3042 50.2403 27.3042 49.6022C27.3042 48.9642 27.8214 48.4469 28.4595 48.4469H46.1736C46.8116 48.4469 47.3289 48.9642 47.3289 49.6022C47.3289 50.2403 46.8118 50.7575 46.1738 50.7575ZM46.1738 38.4346H28.4595C27.8214 38.4346 27.3042 37.9173 27.3042 37.2793C27.3042 36.6413 27.8214 36.124 28.4595 36.124H46.1736C46.8116 36.124 47.3289 36.6413 47.3289 37.2793C47.3289 37.9173 46.8118 38.4346 46.1738 38.4346ZM46.1738 26.1117H28.4595C27.8214 26.1117 27.3042 25.5944 27.3042 24.9564C27.3042 24.3183 27.8214 23.8011 28.4595 23.8011H46.1736C46.8116 23.8011 47.3289 24.3183 47.3289 24.9564C47.3289 25.5945 46.8118 26.1117 46.1738 26.1117Z" fill="#7FA409"/>
</svg>
