<svg width="42" height="42" viewBox="0 0 42 42" fill="none" xmlns="http://www.w3.org/2000/svg">
<path d="M9.23711 24.9481C11.2006 24.9481 12.797 26.5414 12.797 28.508C12.797 30.4725 11.2006 32.0658 9.23711 32.0658C7.2726 32.0658 5.68128 30.4725 5.68128 28.508C5.68128 26.5435 7.2726 24.9481 9.23711 24.9481ZM9.23711 30.0711C10.0982 30.0711 10.7993 29.37 10.7993 28.508C10.7993 27.6489 10.0992 26.9478 9.23711 26.9478C8.37807 26.9478 7.67596 27.6459 7.67596 28.508C7.67596 29.367 8.37807 30.0711 9.23711 30.0711ZM42 27.2114H40.0466C40.1029 27.4628 40.1381 27.7234 40.1381 27.9869C40.1381 28.2102 40.1129 28.4265 40.0727 28.6377H42V27.2114ZM30.4141 27.2094H28.9264V27.2114V28.6377H30.396C30.3679 28.4235 30.3467 28.2072 30.3467 27.9869C30.3467 27.7214 30.3729 27.4628 30.4141 27.2094ZM13.5896 27.9839C13.6228 28.2002 13.6439 28.4144 13.6439 28.6357C13.6439 28.7695 13.6379 28.8972 13.6248 29.029H28.5301V27.9839H13.5896ZM28.2304 9.67163L28.2314 13.1752C28.335 13.1752 28.4295 13.1752 28.5301 13.1752V26.7185V27.6872H13.5393C13.1027 25.6894 11.3193 24.1846 9.18983 24.1846C7.2384 24.1846 5.57667 25.4521 4.97715 27.2043L4.80213 27.316H1.1437V23.3125H3.8147e-06V9.67163H28.2304ZM2.14758 25.5265H2.70283V23.3105H2.14758V25.5265ZM4.75586 27.6117H0.747379V28.6558H4.71864C4.70858 28.5261 4.69953 28.3963 4.69953 28.2625C4.69953 28.0412 4.71965 27.827 4.75586 27.6117ZM41.8702 19.5948V21.1559V26.8211H41.8692H39.6995C39.1765 24.763 37.3136 23.2381 35.0986 23.2381C32.8796 23.2381 31.0157 24.766 30.4976 26.8211H28.9003V13.151H38.929L41.8702 19.5948ZM29.9957 14.1901V17.5759H33.8674L36.7321 19.985H40.5596L38.422 14.1901H29.9957ZM35.0845 24.6906C37.1939 24.6906 38.9019 26.3996 38.9019 28.508C38.9019 30.6193 37.1949 32.3283 35.0845 32.3283C32.9761 32.3283 31.2661 30.6193 31.2661 28.508C31.2681 26.3986 32.9782 24.6906 35.0845 24.6906ZM35.0855 30.1818C36.0079 30.1818 36.7603 29.4294 36.7603 28.508C36.7603 27.5845 36.0089 26.8342 35.0855 26.8342C34.1601 26.8342 33.4107 27.5845 33.4107 28.508C33.4107 29.4314 34.1611 30.1818 35.0855 30.1818Z" fill="#7FA409"/>
</svg>
